<?xml version="1.0" encoding="utf-8"?>
<!-- Generator: Adobe Illustrator 22.0.1, SVG Export Plug-In . SVG Version: 6.00 Build 0)  -->
<svg version="1.1" id="Layer_1" xmlns="http://www.w3.org/2000/svg" xmlns:xlink="http://www.w3.org/1999/xlink" x="0px" y="0px"
	 viewBox="0 0 9 18" style="enable-background:new 0 0 9 18;" xml:space="preserve">
<style type="text/css">
	.st0{fill:#FFFFFF;stroke:#000000;stroke-miterlimit:10;}
	.st1{fill:#3D3D3D;}
	.st2{fill:none;stroke:#000000;stroke-width:2;stroke-linecap:round;stroke-miterlimit:10;}
</style>
<path class="st1" d="M8.7,9.7c0.1-0.1,0.1-0.2,0.2-0.3C9,9.2,9,9.1,9,9s0-0.2-0.1-0.4c0-0.1-0.1-0.2-0.2-0.3v0l0,0l-7-8l0,0
	C1.6,0.1,1.3,0,1,0C0.4,0,0,0.4,0,1c0,0.3,0.1,0.5,0.3,0.7l0,0L5.8,8H0v2h5.8l-5.5,6.3l0,0C0.1,16.5,0,16.7,0,17c0,0.6,0.4,1,1,1
	c0.3,0,0.6-0.1,0.7-0.3l0,0L8.7,9.7L8.7,9.7L8.7,9.7z"/>
</svg>
