<?xml version="1.0" encoding="utf-8"?>
<!-- Generator: Adobe Illustrator 22.0.1, SVG Export Plug-In . SVG Version: 6.00 Build 0)  -->
<svg version="1.1" id="Layer_1" xmlns="http://www.w3.org/2000/svg" xmlns:xlink="http://www.w3.org/1999/xlink" x="0px" y="0px"
	 viewBox="0 0 56 20" style="enable-background:new 0 0 56 20;" xml:space="preserve">
<style type="text/css">
	.st0{opacity:0.1;fill:#1F6AFF;enable-background:new    ;}
	.st1{fill:#FFFFFF;stroke:#000000;stroke-miterlimit:10;}
	.st2{fill:#3D3D3D;}
	.st3{fill:none;stroke:#000000;stroke-width:2;stroke-linecap:round;stroke-miterlimit:10;}
	.st4{fill:#1F6AFF;}
	.st5{enable-background:new    ;}
	.st6{fill:#FFFFFF;}
	.st7{opacity:0.2;}
</style>
<g>
	<path class="st4" d="M21,16.8l-3.8,0.7l-1.4-7.9l-2.7,8.6l-2.4,0.4l-5.5-7.2l1.4,7.9L2.8,20L0,4.2l3.8-0.7l7,8.8l3.6-10.7l3.8-0.7
		L21,16.8z"/>
	<path class="st4" d="M39,16h-3.2l-8.1-9.3V16h-3.9V0H27l8.1,9.6V0H39V16z"/>
	<path class="st4" d="M54.2,4c1.1,1,1.7,2.2,1.8,3.7L52.1,8c-0.1-0.7-0.3-1.3-0.8-1.8s-1-0.7-1.7-0.8c-0.6-0.1-1.2,0-1.6,0.3
		c-0.4,0.3-0.7,0.6-0.7,1.1c-0.1,0.7,0.3,1.2,1.1,1.5l3.2,1.2c2.8,1,4.1,2.7,3.8,5.2c-0.2,1.6-1,2.8-2.4,3.6c-1.4,0.7-3,1-4.8,0.8
		s-3.4-0.9-4.5-1.9c-1.2-1-1.8-2.3-1.8-3.8l4.1-0.3c0.2,1.6,1.1,2.5,2.8,2.7c0.7,0.1,1.3,0,1.8-0.2s0.7-0.6,0.8-1.1
		c0-0.4,0-0.7-0.2-0.9s-0.5-0.5-1.1-0.6l-3.2-1.1c-2.8-1-4-2.7-3.7-5.1c0.2-1.5,0.9-2.7,2.2-3.4c1.3-0.8,2.8-1,4.7-0.8
		C51.8,2.4,53.2,3,54.2,4z"/>
</g>
</svg>
