<?xml version="1.0" encoding="utf-8"?>
<!-- Generator: Adobe Illustrator 22.0.1, SVG Export Plug-In . SVG Version: 6.00 Build 0)  -->
<svg version="1.1" id="Layer_1" xmlns="http://www.w3.org/2000/svg" xmlns:xlink="http://www.w3.org/1999/xlink" x="0px" y="0px"
	 viewBox="0 0 84 30" style="enable-background:new 0 0 84 30;" xml:space="preserve">
<style type="text/css">
	.st0{opacity:0.1;fill:#1F6AFF;}
	.st1{fill:#FFFFFF;stroke:#000000;stroke-miterlimit:10;}
	.st2{fill:#3D3D3D;}
	.st3{fill:none;stroke:#000000;stroke-width:2;stroke-linecap:round;stroke-miterlimit:10;}
	.st4{fill:#1F6AFF;}
	.st5{fill:#FFFFFF;}
	.st6{opacity:0.2;}
</style>
<g>
	<path class="st5" d="M31.5,25.2l-5.6,1l-2.1-11.8l-4.1,12.9L16,27.9L7.7,17.1L9.8,29l-5.6,1L0,6.4l5.7-1l10.5,13.2l5.3-16.1l5.7-1
		L31.5,25.2z"/>
	<path class="st5" d="M58.5,24h-4.9L41.5,10.1V24h-5.9V0h4.9l12.1,14.3V0h5.9V24z"/>
	<path class="st5" d="M81.3,6c1.6,1.4,2.5,3.3,2.7,5.5l-5.9,0.4c-0.1-1.1-0.5-2-1.2-2.7c-0.7-0.7-1.6-1.1-2.6-1.2
		c-0.9-0.1-1.7,0-2.4,0.4c-0.7,0.4-1,0.9-1.1,1.6c-0.1,1,0.4,1.8,1.7,2.2l4.8,1.7c4.2,1.5,6.1,4.1,5.7,7.8c-0.3,2.4-1.5,4.2-3.5,5.3
		c-2,1.1-4.5,1.5-7.3,1.1c-2.8-0.4-5-1.3-6.8-2.8c-1.8-1.5-2.7-3.4-2.7-5.7l6.2-0.4c0.3,2.4,1.7,3.8,4.2,4.1c1.1,0.1,2,0,2.7-0.3
		c0.7-0.4,1.1-0.9,1.2-1.7c0.1-0.6,0-1-0.3-1.4c-0.3-0.4-0.8-0.7-1.6-1l-4.8-1.7c-4.1-1.5-6-4.1-5.5-7.7c0.3-2.3,1.4-4,3.3-5.1
		c1.9-1.1,4.3-1.5,7.1-1.2C77.6,3.6,79.7,4.5,81.3,6z"/>
</g>
</svg>
